# AST/ASF file generated using VICON BodyLanguage
# -----------------------------------------------
:version 1.10
:name VICON
:units
  mass 1.0
  length 0.45
  angle deg
:documentation
   .ast/.asf automatically generated from VICON data using
   VICON BodyBuilder and BodyLanguage model FoxedUp or BRILLIANT.MOD
:root
   order TX TY TZ RX RY RZ
   axis XYZ
   position 0 0 0  
   orientation 0 0 0 
:bonedata
  begin
     id 1 
     name lhipjoint
     direction 0.702568 -0.596508 0.388042 
     length 2.56661 
     axis 0 0 0  XYZ
  end
  begin
     id 2 
     name lfemur
     direction 0.34202 -0.939693 0  
     length 6.58374  
     axis 0 0 20  XYZ
    dof rx ry rz
    limits (-160.0 20.0)
           (-70.0 70.0)
           (-60.0 70.0)
  end
  begin
     id 3 
     name ltibia
     direction 0.34202 -0.939693 0   
     length 6.62538   
     axis 0 0 20   XYZ
    dof rx
    limits (-10.0 170.0)
  end
  begin
     id 4 
     name lfoot
     direction 0.10455 -0.287249 0.952133   
     length 2.26699   
     axis -90 7.62852e-016 20   XYZ
    dof rx rz
    limits (-45.0 90.0)
           (-70.0 20.0)
  end
  begin
     id 5 
     name ltoes
     direction 1.53572e-011 -4.22322e-011 1   
     length 1.12949   
     axis -90 7.62852e-016 20   XYZ
    dof rx
    limits (-90.0 20.0)
  end
  begin
     id 6 
     name rhipjoint
     direction -0.728055 -0.574632 0.373811   
     length 2.66432  
     axis 0 0 0  XYZ 
  end
  begin
     id 7 
     name rfemur
     direction -0.34202 -0.939693 0   
     length 6.66732   
     axis 0 0 -20   XYZ
    dof rx ry rz
    limits (-160.0 20.0)
           (-70.0 70.0)
           (-70.0 60.0)
  end
  begin
     id 8 
     name rtibia
     direction -0.34202 -0.939693 0   
     length 6.59288   
     axis 0 0 -20   XYZ
    dof rx
    limits (-10.0 170.0)
 end
 begin
     id 9 
     name rfoot
     direction -0.119193 -0.327479 0.93731   
     length 2.38061  
     axis -90 -7.62852e-016 -20   XYZ
    dof rx rz
    limits (-45.0 90.0)
           (-20.0 70.0)
  end
  begin
     id 10 
     name rtoes
     direction -1.53547e-011 -4.21827e-011 1   
     length 1.17899   
     axis -90 -7.62852e-016 -20   XYZ
    dof rx
    limits (-90.0 20.0)
  end
  begin
     id 11 
     name lowerback
     direction -0.000416114 0.999912 -0.0132284   
     length 2.12109   
     axis 0 0 0   XYZ
    dof rx ry rz
    limits (-20.0 45.0)
           (-30.0 30.0)
           (-30.0 30.0)
  end
  begin
     id 12 
     name upperback
     direction -0.00136371 0.99809 0.0617608   
     length 2.10067   
     axis 0 0 0   XYZ
    dof rx ry rz
    limits (-20.0 45.0)
           (-30.0 30.0)
           (-30.0 30.0)
  end
  begin
     id 13 
     name thorax
     direction -3.43026e-005 0.997776 0.0666515   
     length 2.10618   
     axis 0 0 0   XYZ
    dof rx ry rz
    limits (-20.0 45.0)
           (-30.0 30.0)
           (-30.0 30.0)
  end
  begin
     id 14 
     name lowerneck
     direction 0.0398646 0.998418 0.0396592   
     length 1.83817   
     axis 0 0 0   XYZ
    dof rx ry rz
    limits (-20.0 45.0)
           (-30.0 30.0)
           (-30.0 30.0)
  end
  begin
     id 15 
     name upperneck
     direction -0.0367268 0.961527 -0.272244   
     length 1.81975   
     axis 0 0 0   XYZ
    dof rx ry rz
    limits (-20.0 45.0)
           (-30.0 30.0)
           (-30.0 30.0)
  end
  begin
     id 16
     name head
     direction -0.0182665 0.99536 -0.0944669  
     length 1.86026  
     axis 0 0 0   XYZ
    dof rx ry rz
    limits (-20.0 45.0)
           (-30.0 30.0)
           (-30.0 30.0)
  end
  begin
     id 17 
     name lclavicle
     direction 0.924239 0.361045 0.124212  
     length 3.26878  
     axis 0 0 0   XYZ
    dof ry rz
    limits (-20.0 10.0)
           (0.0 20.0)
  end
  begin
     id 18 
     name lhumerus
     direction 1 -4.48968e-011 -2.56583e-027   
     length 4.58538   
     axis 180 -30 -90   XYZ
    dof rx ry rz
    limits (-60.0 90.0)
           (-90.0 90.0)
           (-90.0 90.0)
  end
  begin
     id 19
     name lradius
     direction 1 -4.4898e-011 -5.50375e-027   
     length 2.68935   
     axis 180 -30 -90   XYZ
    dof rx
    limits (-10.0 170.0)
  end
  begin
     id 20
     name lwrist
     direction 1 -4.48939e-011 -1.48955e-026   
     length 1.34468   
     axis 9.0955e-015 90 90   XYZ
    dof ry
    limits (-180.0 0.0)
 end
  begin
     id 21 
     name lhand
     direction 1 -4.48936e-011 -2.97907e-026   
     length 0.585058   
     axis 1.90115e-014 90 90   XYZ
    dof rx rz
    limits (-90.0 90.0)
           (-45.0 45.0)
  end
  begin
     id 22 
     name lfingers
     direction 1 -4.49082e-011 -5.96235e-026   
     length 0.471689   
     axis 3.80223e-014 90 90   XYZ
    dof rx
    limits (0.0 90.0)
  end
  begin
     id 23
     name lthumb
     direction 0.707107 -6.3489e-011 0.707107   
     length 0.677253   
     axis -90 45 -3.84942e-014   XYZ
    dof rx rz
    limits (-45.0 45.0)
           (-45.0 45.0)
  end
  begin
     id 24 
     name rclavicle
     direction -0.923098 0.371783 0.0983239   
     length 3.19656  
     axis 0 0 0   XYZ 
    dof ry rz
    limits (-10.0 20.0)
           (-20.0 0.0)
  end
  begin
     id 25 
     name rhumerus
     direction -1 -4.48976e-011 -2.5492e-027  
     length 4.4745   
     axis 180 30 90   XYZ
    dof rx ry rz
    limits (-90.0 60.0)
           (-90.0 90.0)
           (-90.0 90.0)
  end
  begin
     id 26 
     name rradius
     direction -1 -4.48941e-011 -4.36555e-027   
     length 2.93896   
     axis 180 30 90   XYZ
    dof rx
    limits (-10.0 170.0)
  end
  begin
     id 27 
     name rwrist
     direction -1 -4.49044e-011 -1.49032e-026   
     length 1.46948   
     axis 9.0955e-015 -90 -90   XYZ
    dof ry
    limits (-180.0 0.0)
  end
  begin
     id 28
     name rhand
     direction -1 -4.48826e-011 -2.97749e-026   
     length 0.405092   
     axis 1.90115e-014 -90 -90   XYZ
    dof rx rz
    limits (-90.0 90.0)
           (-45.0 45.0)
  end
  begin
     id 29
     name rfingers
     direction -1 -4.49209e-011 -5.96602e-026   
     length 0.326596   
     axis 3.80223e-014 -90 -90   XYZ
    dof rx
    limits (0.0 90.0)
  end
  begin
     id 30
     name rthumb
     direction -0.707107 -6.34776e-011 0.707107   
     length 0.468928   
     axis -90 -45 3.84942e-014   XYZ
    dof rx rz
    limits (-45.0 45.0)
           (-45.0 45.0)
  end
:hierarchy
  begin
    root lhipjoint rhipjoint lowerback
    lhipjoint lfemur
    lfemur ltibia
    ltibia lfoot
    lfoot ltoes
    rhipjoint rfemur
    rfemur rtibia
    rtibia rfoot
    rfoot rtoes
    lowerback upperback
    upperback thorax
    thorax lowerneck lclavicle rclavicle
    lowerneck upperneck
    upperneck head
    lclavicle lhumerus
    lhumerus lradius
    lradius lwrist
    lwrist lhand lthumb
    lhand lfingers
    rclavicle rhumerus
    rhumerus rradius
    rradius rwrist
    rwrist rhand rthumb
    rhand rfingers
  end

#!OML:ASF H:\Punching\Project 1\Capture day 1\Session 1\female.ASF
:FULLY-SPECIFIED
:DEGREES
733
root -2.26328 15.1712 8.03147 12.723 -14.1249 3.72024
lowerback -2.17706 -3.07183 -1.15361
upperback -8.00388 -4.0201 3.28443
thorax -6.81193 -1.8333 4.23092
lowerneck -6.55278 -11.6485 -5.96753
upperneck 23.4195 -16.6716 4.13958
head 9.29714 -8.00403 0.614194
rclavicle 3.46382e-014 -1.74931e-014
rhumerus 18.7133 -35.3212 -34.3284
rradius 81.3864
rwrist 5.42969
rhand -36.4145 10.2231
rfingers 7.12502
rthumb -9.50971 -19.5423
lclavicle 3.46382e-014 -1.74931e-014
lhumerus -69.4194 -13.382 100.308
lradius 112.245
lwrist 10.5887
lhand -22.5558 8.2686
lfingers 7.12502
lthumb 3.87207 38.2132
rfemur -38.7122 -8.14004 11.3087
rtibia 48.9306
rfoot -20.3509 -3.49564
rtoes -4.21001
lfemur 7.08185 -1.73662 -9.45883
ltibia 1.90833e-014
lfoot -13.6245 18.3289
ltoes -3.66316
734
root -2.26494 15.1709 8.02727 12.6135 -14.2687 3.84606
lowerback -2.19341 -3.00851 -1.15369
upperback -7.96781 -3.94263 3.13664
thorax -6.77898 -1.80065 4.07028
lowerneck -6.59992 -11.5471 -5.85687
upperneck 23.4889 -16.5968 4.32723
head 9.33307 -7.93929 0.663243
rclavicle 7.32025e-014 -2.54444e-014
rhumerus 18.8432 -34.6937 -34.7831
rradius 80.9906
rwrist 7.5726
rhand -36.9043 9.75315
rfingers 7.12502
rthumb -9.98232 -19.9901
lclavicle 7.32025e-014 -2.54444e-014
lhumerus -69.0092 -14.0008 100.189
lradius 112.293
lwrist 9.83853
lhand -22.4397 8.19664
lfingers 7.12502
lthumb 3.98413 38.1391
rfemur -38.7148 -8.14155 11.1908
rtibia 48.9796
rfoot -20.3598 -3.42308
rtoes -4.26163
lfemur 7.17612 -1.60448 -9.56973
ltibia -6.36111e-015
lfoot -13.4326 18.1945
ltoes -4.11389
735
root -2.26404 15.1715 8.02169 12.516 -14.3987 3.94979
lowerback -2.20771 -2.93414 -1.1347
upperback -7.93318 -3.84996 2.98607
thorax -6.75088 -1.76153 3.89611
lowerneck -6.65228 -11.4544 -5.75344
upperneck 23.5479 -16.5352 4.52658
head 9.3689 -7.87989 0.715573
rclavicle -4.75592e-014 -1.43125e-014
rhumerus 19.0357 -34.2135 -35.3826
rradius 80.6084
rwrist 9.83146
rhand -37.3543 9.16643
rfingers 7.12502
rthumb -10.4164 -20.5555
lclavicle -4.75592e-014 -1.43125e-014
lhumerus -68.5736 -14.6536 100.043
lradius 112.309
lwrist 9.12518
lhand -22.3433 8.15503
lfingers 7.12502
lthumb 4.07728 38.0958
rfemur -38.7123 -8.13527 11.0879
rtibia 48.994
rfoot -20.3393 -3.36719
rtoes -4.31317
lfemur 7.25282 -1.47848 -9.66285
ltibia -2.54444e-014
lfoot -13.242 18.0614
ltoes -4.61893
736
root -2.2606 15.1731 8.01474 12.4324 -14.5059 4.02532
lowerback -2.21593 -2.85311 -1.09615
upperback -7.90303 -3.74764 2.8406
thorax -6.73215 -1.71834 3.71699
lowerneck -6.70458 -11.3683 -5.65803
upperneck 23.5958 -16.4807 4.72651
head 9.40207 -7.82441 0.768835
rclavicle 1.83876e-015 -2.06736e-014
rhumerus 19.273 -33.8399 -36.0977
rradius 80.2804
rwrist 12.0288
rhand -37.6921 8.49607
rfingers 7.12502
rthumb -10.7423 -21.2093
lclavicle 1.83876e-015 -2.06736e-014
lhumerus -68.1178 -15.3189 99.8811
lradius 112.309
lwrist 8.53242
lhand -22.277 8.1495
lfingers 7.12502
lthumb 4.14131 38.089
rfemur -38.7004 -8.12325 11.0058
rtibia 48.973
rfoot -20.2911 -3.3296
rtoes -4.36399
lfemur 7.30922 -1.36612 -9.7319
ltibia -2.8625e-014
lfoot -13.0482 17.9368
ltoes -5.20265
737
root -2.25463 15.1755 8.00661 12.3588 -14.583 4.07812
lowerback -2.21821 -2.77084 -1.0491
upperback -7.8749 -3.64295 2.70457
thorax -6.7185 -1.674 3.54357
lowerneck -6.76394 -11.2856 -5.57408
upperneck 23.6369 -16.4278 4.92454
head 9.43514 -7.77052 0.822789
rclavicle -1.58034e-014 4.77083e-015
rhumerus 19.551 -33.5346 -36.9123
rradius 80.0309
rwrist 14.0319
rhand -37.8804 7.77403
rfingers 7.12502
rthumb -10.9239 -21.9218
lclavicle -1.58034e-014 4.77083e-015
lhumerus -67.6368 -15.9814 99.7111
lradius 112.305
lwrist 8.113
lhand -22.234 8.18631
lfingers 7.12502
lthumb 4.18281 38.125
rfemur -38.6722 -8.11038 10.9373
rtibia 48.9171
rfoot -20.2181 -3.31117
rtoes -4.41595
lfemur 7.34537 -1.27581 -9.78199
ltibia -3.18055e-015
lfoot -12.8578 17.8217
ltoes -5.79989
738
root -2.24625 15.1789 7.99723 12.2962 -14.6232 4.10372
lowerback -2.20906 -2.69371 -0.997378
upperback -7.85231 -3.54408 2.58692
thorax -6.71564 -1.63195 3.38805
lowerneck -6.82068 -11.2004 -5.50393
upperneck 23.6668 -16.3663 5.11435
head 9.46375 -7.71474 0.877781
rclavicle -1.72446e-014 1.74931e-014
rhumerus 19.8542 -33.2413 -37.7932
rradius 79.8744
rwrist 15.7247
rhand -37.9002 7.06997
rfingers 7.12502
rthumb -10.943 -22.6249
lclavicle -1.72446e-014 1.74931e-014
lhumerus -67.136 -16.615 99.5394
lradius 112.311
lwrist 7.88523
lhand -22.2117 8.2616
lfingers 7.12502
lthumb 4.20435 38.1999
rfemur -38.6237 -8.09618 10.8868
rtibia 48.8246
rfoot -20.1224 -3.31653
rtoes -4.46922
lfemur 7.35836 -1.21323 -9.80791
ltibia 2.22639e-014
lfoot -12.6656 17.7221
ltoes -6.40666
739
root -2.23554 15.1831 7.98675 12.2414 -14.6224 4.10043
lowerback -2.19173 -2.62396 -0.942752
upperback -7.82993 -3.45396 2.49037
thorax -6.71559 -1.59361 3.25376
lowerneck -6.88407 -11.1134 -5.44285
upperneck 23.69 -16.296 5.28998
head 9.49014 -7.65677 0.930479
rclavicle 2.64881e-014 -9.54166e-015
rhumerus 20.1685 -32.9231 -38.7141
rradius 79.8198
rwrist 17.0085
rhand -37.741 6.46631
rfingers 7.12502
rthumb -10.7895 -23.2366
lclavicle 2.64881e-014 -9.54166e-015
lhumerus -66.6066 -17.2207 99.3683
lradius 112.331
lwrist 7.84029
lhand -22.2135 8.36178
lfingers 7.12502
lthumb 4.2026 38.3001
rfemur -38.5474 -8.0801 10.8551
rtibia 48.6938
rfoot -20.0074 -3.34988
rtoes -4.53154
lfemur 7.35018 -1.18259 -9.80789
ltibia -3.18055e-015
lfoot -12.4756 17.6428
ltoes -7.00029
740
root -2.22265 15.188 7.97512 12.193 -14.5777 4.06631
lowerback -2.16595 -2.56576 -0.886127
upperback -7.80689 -3.37806 2.41653
thorax -6.71729 -1.56163 3.14301
lowerneck -6.94954 -11.0199 -5.38223
upperneck 23.7038 -16.2103 5.44683
head 9.51087 -7.59364 0.979332
rclavicle 3.40419e-014 3.18055e-015
rhumerus 20.4673 -32.5325 -39.636
rradius 79.8725
rwrist 17.7959
rhand -37.3992 6.02094
rfingers 7.12502
rthumb -10.4598 -23.6989
lclavicle 3.40419e-014 3.18055e-015
lhumerus -66.0516 -17.7842 99.1937
lradius 112.372
lwrist 7.93503
lhand -22.2231 8.47308
lfingers 7.12502
lthumb 4.1933 38.4115
rfemur -38.4394 -8.06045 10.844
rtibia 48.5225
rfoot -19.8743 -3.41544
rtoes -4.60471
lfemur 7.32279 -1.18675 -9.77958
ltibia 1.27222e-014
lfoot -12.2906 17.5855
ltoes -7.55027
741
root -2.20771 15.1935 7.9623 12.1494 -14.4893 4.00473
lowerback -2.13161 -2.51915 -0.832387
upperback -7.78471 -3.31664 2.36373
thorax -6.72241 -1.53586 3.0568
lowerneck -7.01551 -10.9197 -5.31882
upperneck 23.7147 -16.1099 5.58359
head 9.52751 -7.52543 1.02328
rclavicle -2.21148e-014 7.15625e-015
rhumerus 20.7262 -32.042 -40.5291
rradius 80.034
rwrist 18.0337
rhand -36.8891 5.74739
rfingers 7.12502
rthumb -9.96767 -23.9966
lclavicle -2.21148e-014 7.15625e-015
lhumerus -65.4732 -18.3043 99.0123
lradius 112.437
lwrist 8.11276
lhand -22.2215 8.58192
lfingers 7.12502
lthumb 4.19491 38.5204
rfemur -38.2994 -8.03466 10.8498
rtibia 48.3101
rfoot -19.7222 -3.51686
rtoes -4.6797
lfemur 7.2765 -1.22656 -9.72745
ltibia -1.90833e-014
lfoot -12.1038 17.5562
ltoes -8.0823
742
root -2.19081 15.1994 7.94836 12.1075 -14.3613 3.91846
lowerback -2.09303 -2.48236 -0.781337
upperback -7.7576 -3.26754 2.32683
thorax -6.72279 -1.51558 2.98908
lowerneck -7.09112 -10.8126 -5.24363
upperneck 23.724 -15.9958 5.70114
head 9.54169 -7.45143 1.06051
rclavicle -3.25013e-014 -7.15625e-015
rhumerus 20.9322 -31.4466 -41.3799
rradius 80.3046
rwrist 17.7141
rhand -36.2227 5.63444
rfingers 7.12502
rthumb -9.32473 -24.1393
lclavicle -3.25013e-014 -7.15625e-015
lhumerus -64.8649 -18.7831 98.8148
lradius 112.523
lwrist 8.29879
lhand -22.1898 8.66795
lfingers 7.12502
lthumb 4.22548 38.6058
rfemur -38.1272 -7.99702 10.8687
rtibia 48.0571
rfoot -19.5498 -3.65834
rtoes -4.77728
lfemur 7.21581 -1.299 -9.65601
ltibia 9.54166e-015
lfoot -11.9169 17.5567
ltoes -8.59704
743
root -2.17193 15.2058 7.93329 12.0652 -14.1965 3.81258
lowerback -2.05267 -2.45235 -0.731968
upperback -7.7267 -3.22703 2.29901
thorax -6.71893 -1.49919 2.93196
lowerneck -7.17134 -10.7003 -5.15528
upperneck 23.7359 -15.873 5.80484
head 9.5546 -7.3734 1.09215
rclavicle -1.15295e-014 1.35174e-014
rhumerus 21.0691 -30.7507 -42.1785
rradius 80.6819
rwrist 16.8736
rhand -35.4239 5.6367
rfingers 7.12502
rthumb -8.55383 -24.17
lclavicle -1.15295e-014 1.35174e-014
lhumerus -64.2314 -19.2349 98.599
lradius 112.63
lwrist 8.43529
lhand -22.1162 8.74003
lfingers 7.12502
lthumb 4.29657 38.6764
rfemur -37.924 -7.94547 10.8946
rtibia 47.7654
rfoot -19.357 -3.84027
rtoes -4.88756
lfemur 7.14148 -1.40284 -9.57045
ltibia -6.36111e-015
lfoot -11.735 17.5842
ltoes -9.06906
